<svg width="800" height="500" xmlns="http://www.w3.org/2000/svg">
  <!-- Background -->
  <rect width="800" height="500" fill="#f8f4e9"/>
  
  <!-- Decorative elements -->
  <rect x="50" y="50" width="700" height="400" fill="#faf0e6" stroke="#d4af37" stroke-width="2"/>
  
  <!-- Wedding venue illustration -->
  <polygon points="400,100 600,200 600,350 200,350 200,200" fill="#f5deb3" stroke="#8b4513" stroke-width="2"/>
  <rect x="350" y="250" width="100" height="100" fill="#8b4513"/>
  <circle cx="400" cy="150" r="50" fill="#ffb6c1" opacity="0.7"/>
  <circle cx="450" cy="170" r="40" fill="#ffb6c1" opacity="0.7"/>
  <circle cx="350" cy="170" r="40" fill="#ffb6c1" opacity="0.7"/>
  
  <!-- Text -->
  <text x="400" y="400" font-family="Arial" font-size="24" text-anchor="middle" fill="#8b4513">Wedding Venues in Agra</text>
  <text x="400" y="430" font-family="Arial" font-size="16" text-anchor="middle" fill="#666">Elegant locations for your special day</text>
  
  <!-- Taj Mahal silhouette -->
  <path d="M400,120 L450,200 L500,180 L550,200 L600,180 L650,200 L650,250 L150,250 L150,200 L200,180 L250,200 L300,180 L350,200 L400,120" fill="#f5f5f5" stroke="#d4af37" stroke-width="1"/>
</svg>